<mxfile host="65bd71144e" pages="2">
    <diagram id="Sg2kANkvKP2gvFGt-TKc" name="UI">
        <mxGraphModel dx="2335" dy="1016" grid="1" gridSize="10" guides="1" tooltips="1" connect="1" arrows="1" fold="1" page="0" pageScale="1" pageWidth="850" pageHeight="1100" math="0" shadow="0">
            <root>
                <mxCell id="0"/>
                <mxCell id="1" parent="0"/>
                <mxCell id="ddjmd_MwmNvslgD9BPvl-26" value="" style="rounded=0;whiteSpace=wrap;html=1;fillColor=none;dashed=1;" parent="1" vertex="1">
                    <mxGeometry x="690" y="112.44" width="740" height="687.56" as="geometry"/>
                </mxCell>
                <mxCell id="ddjmd_MwmNvslgD9BPvl-41" value="" style="rounded=0;whiteSpace=wrap;html=1;fillColor=none;dashed=1;" parent="1" vertex="1">
                    <mxGeometry x="710" y="-290" width="460" height="197.56" as="geometry"/>
                </mxCell>
                <mxCell id="ddjmd_MwmNvslgD9BPvl-28" value="" style="rounded=0;whiteSpace=wrap;html=1;fillColor=none;dashed=1;" parent="1" vertex="1">
                    <mxGeometry x="410" y="260" width="240" height="250" as="geometry"/>
                </mxCell>
                <mxCell id="ddjmd_MwmNvslgD9BPvl-3" value="" style="rounded=0;whiteSpace=wrap;html=1;fillColor=none;dashed=1;" parent="1" vertex="1">
                    <mxGeometry x="-170" y="220" width="550" height="240" as="geometry"/>
                </mxCell>
                <mxCell id="ddjmd_MwmNvslgD9BPvl-1" value="" style="rounded=0;whiteSpace=wrap;html=1;fillColor=none;dashed=1;" parent="1" vertex="1">
                    <mxGeometry x="110" y="30" width="460" height="180" as="geometry"/>
                </mxCell>
                <mxCell id="5x1xcsumSCacz5PFYqU2-15" value="" style="shape=image;verticalLabelPosition=bottom;labelBackgroundColor=default;verticalAlign=top;aspect=fixed;imageAspect=0;image=https://cdn.discordapp.com/attachments/1104825374573088868/1104937368907153468/Frame_80.png;fillColor=#ffc979;shadow=0;clipPath=inset(49.67% 42.67% 6.99% 20.33%);" parent="1" vertex="1">
                    <mxGeometry x="288.57" y="1090" width="400" height="468.54" as="geometry"/>
                </mxCell>
                <mxCell id="5x1xcsumSCacz5PFYqU2-39" value="" style="group" parent="1" vertex="1" connectable="0">
                    <mxGeometry x="30" y="320" width="340" height="130" as="geometry"/>
                </mxCell>
                <mxCell id="5x1xcsumSCacz5PFYqU2-41" value="" style="rounded=0;whiteSpace=wrap;html=1;fillColor=none;dashed=1;strokeColor=#A1A1A1;align=left;" parent="5x1xcsumSCacz5PFYqU2-39" vertex="1">
                    <mxGeometry y="30" width="340" height="100" as="geometry"/>
                </mxCell>
                <mxCell id="5x1xcsumSCacz5PFYqU2-40" value="Task node" style="rounded=1;whiteSpace=wrap;html=1;strokeColor=none;fillColor=#ffffff;arcSize=11;fontColor=#242424;fontSize=21;shadow=0;align=left;spacingLeft=21;" parent="5x1xcsumSCacz5PFYqU2-39" vertex="1">
                    <mxGeometry x="10" y="40" width="320" height="80" as="geometry"/>
                </mxCell>
                <mxCell id="5x1xcsumSCacz5PFYqU2-43" value="" style="ellipse;whiteSpace=wrap;html=1;aspect=fixed;fillColor=#ffc979;strokeColor=none;" parent="5x1xcsumSCacz5PFYqU2-39" vertex="1">
                    <mxGeometry x="230" y="70" width="20" height="20" as="geometry"/>
                </mxCell>
                <mxCell id="5x1xcsumSCacz5PFYqU2-44" value="" style="ellipse;whiteSpace=wrap;html=1;aspect=fixed;fillColor=#ff7d7d;strokeColor=none;" parent="5x1xcsumSCacz5PFYqU2-39" vertex="1">
                    <mxGeometry x="260" y="70" width="20" height="20" as="geometry"/>
                </mxCell>
                <mxCell id="5x1xcsumSCacz5PFYqU2-45" value="#&lt;span style=&quot;color: rgb(78, 201, 176); background-color: rgb(31, 31, 31); font-family: &amp;quot;Cascadia Code&amp;quot;, Consolas, &amp;quot;Courier New&amp;quot;, monospace; font-size: 14px;&quot;&gt;TaskNode&lt;br&gt;&lt;/span&gt;" style="text;html=1;strokeColor=none;fillColor=none;align=center;verticalAlign=middle;whiteSpace=wrap;rounded=0;" parent="5x1xcsumSCacz5PFYqU2-39" vertex="1">
                    <mxGeometry x="91.42857142857144" width="157.14285714285714" height="35.12195121951219" as="geometry"/>
                </mxCell>
                <mxCell id="ddjmd_MwmNvslgD9BPvl-13" value="Text" style="rounded=1;whiteSpace=wrap;html=1;strokeColor=none;fillColor=#ececec;fontColor=#242424;fontSize=23;fontStyle=1" parent="5x1xcsumSCacz5PFYqU2-39" vertex="1">
                    <mxGeometry x="140" y="60" width="70" height="40" as="geometry"/>
                </mxCell>
                <mxCell id="5x1xcsumSCacz5PFYqU2-10" value="" style="group" parent="1" vertex="1" connectable="0">
                    <mxGeometry x="420" y="260" width="220" height="240" as="geometry"/>
                </mxCell>
                <mxCell id="5x1xcsumSCacz5PFYqU2-8" value="" style="rounded=0;whiteSpace=wrap;html=1;fillColor=none;dashed=1;strokeColor=#A1A1A1;align=left;" parent="5x1xcsumSCacz5PFYqU2-10" vertex="1">
                    <mxGeometry y="29.268292682926827" width="220" height="210.73170731707316" as="geometry"/>
                </mxCell>
                <mxCell id="5x1xcsumSCacz5PFYqU2-7" value="Title bar" style="rounded=1;whiteSpace=wrap;html=1;strokeColor=none;fillColor=#D9D9D9;arcSize=11;fontColor=#242424;fontSize=21;verticalAlign=top;align=center;spacingLeft=0;spacingRight=52;" parent="5x1xcsumSCacz5PFYqU2-10" vertex="1">
                    <mxGeometry x="15.714285714285714" y="40.97560975609756" width="188.57142857142856" height="93.65853658536585" as="geometry"/>
                </mxCell>
                <mxCell id="5x1xcsumSCacz5PFYqU2-6" value="Window" style="rounded=1;whiteSpace=wrap;html=1;strokeColor=none;fillColor=#ffffff;arcSize=11;fontColor=#242424;fontSize=21;shadow=0;" parent="5x1xcsumSCacz5PFYqU2-10" vertex="1">
                    <mxGeometry x="15.714285714285714" y="87.80487804878048" width="188.57142857142856" height="140.48780487804876" as="geometry"/>
                </mxCell>
                <mxCell id="5x1xcsumSCacz5PFYqU2-9" value="#&lt;span style=&quot;color: rgb(78, 201, 176); background-color: rgb(31, 31, 31); font-family: &amp;quot;Cascadia Code&amp;quot;, Consolas, &amp;quot;Courier New&amp;quot;, monospace; font-size: 14px;&quot;&gt;BaseWindow&lt;/span&gt;" style="text;html=1;strokeColor=none;fillColor=none;align=center;verticalAlign=middle;whiteSpace=wrap;rounded=0;" parent="5x1xcsumSCacz5PFYqU2-10" vertex="1">
                    <mxGeometry x="31.428571428571427" width="157.14285714285714" height="35.12195121951219" as="geometry"/>
                </mxCell>
                <mxCell id="5x1xcsumSCacz5PFYqU2-11" value="" style="ellipse;whiteSpace=wrap;html=1;aspect=fixed;fillColor=#ffc979;strokeColor=none;" parent="5x1xcsumSCacz5PFYqU2-10" vertex="1">
                    <mxGeometry x="140" y="50" width="20" height="20" as="geometry"/>
                </mxCell>
                <mxCell id="5x1xcsumSCacz5PFYqU2-12" value="" style="ellipse;whiteSpace=wrap;html=1;aspect=fixed;fillColor=#ff7d7d;strokeColor=none;" parent="5x1xcsumSCacz5PFYqU2-10" vertex="1">
                    <mxGeometry x="168.57" y="50" width="20" height="20" as="geometry"/>
                </mxCell>
                <mxCell id="5x1xcsumSCacz5PFYqU2-38" value="" style="group" parent="1" vertex="1" connectable="0">
                    <mxGeometry x="-160" y="210" width="340" height="130" as="geometry"/>
                </mxCell>
                <mxCell id="5x1xcsumSCacz5PFYqU2-26" value="" style="rounded=0;whiteSpace=wrap;html=1;fillColor=none;dashed=1;strokeColor=#A1A1A1;align=left;" parent="5x1xcsumSCacz5PFYqU2-38" vertex="1">
                    <mxGeometry y="30" width="340" height="100" as="geometry"/>
                </mxCell>
                <mxCell id="5x1xcsumSCacz5PFYqU2-28" value="Group Node" style="rounded=1;whiteSpace=wrap;html=1;strokeColor=none;fillColor=#ffffff;arcSize=11;fontColor=#242424;fontSize=21;shadow=0;align=left;spacingLeft=21;" parent="5x1xcsumSCacz5PFYqU2-38" vertex="1">
                    <mxGeometry x="10" y="40" width="320" height="80" as="geometry"/>
                </mxCell>
                <mxCell id="5x1xcsumSCacz5PFYqU2-32" value="" style="ellipse;whiteSpace=wrap;html=1;aspect=fixed;fillColor=#70f38d;strokeColor=none;" parent="5x1xcsumSCacz5PFYqU2-38" vertex="1">
                    <mxGeometry x="160" y="70" width="20" height="20" as="geometry"/>
                </mxCell>
                <mxCell id="5x1xcsumSCacz5PFYqU2-33" value="" style="ellipse;whiteSpace=wrap;html=1;aspect=fixed;fillColor=#ffc979;strokeColor=none;" parent="5x1xcsumSCacz5PFYqU2-38" vertex="1">
                    <mxGeometry x="190" y="70" width="20" height="20" as="geometry"/>
                </mxCell>
                <mxCell id="5x1xcsumSCacz5PFYqU2-34" value="" style="ellipse;whiteSpace=wrap;html=1;aspect=fixed;fillColor=#ff7d7d;strokeColor=none;" parent="5x1xcsumSCacz5PFYqU2-38" vertex="1">
                    <mxGeometry x="220" y="70" width="20" height="20" as="geometry"/>
                </mxCell>
                <mxCell id="5x1xcsumSCacz5PFYqU2-37" value="#&lt;span style=&quot;color: rgb(78, 201, 176); background-color: rgb(31, 31, 31); font-family: &amp;quot;Cascadia Code&amp;quot;, Consolas, &amp;quot;Courier New&amp;quot;, monospace; font-size: 14px;&quot;&gt;GroupNode&lt;/span&gt;" style="text;html=1;strokeColor=none;fillColor=none;align=center;verticalAlign=middle;whiteSpace=wrap;rounded=0;" parent="5x1xcsumSCacz5PFYqU2-38" vertex="1">
                    <mxGeometry x="91.42857142857144" width="157.14285714285714" height="35.12195121951219" as="geometry"/>
                </mxCell>
                <mxCell id="w_W01Yd-EX_Y7DasgpPd-2" value="" style="shape=image;verticalLabelPosition=bottom;labelBackgroundColor=default;verticalAlign=top;aspect=fixed;imageAspect=0;image=https://cdn.discordapp.com/attachments/1104825374573088868/1104937368907153468/Frame_80.png;fillColor=#ffc979;shadow=0;clipPath=inset(5.33% 14.33% 51.33% 19.67%);" parent="1" vertex="1">
                    <mxGeometry x="-599.69" y="570" width="639.69" height="420" as="geometry"/>
                </mxCell>
                <mxCell id="w_W01Yd-EX_Y7DasgpPd-7" style="edgeStyle=orthogonalEdgeStyle;orthogonalLoop=1;jettySize=auto;html=1;exitX=0.5;exitY=1;exitDx=0;exitDy=0;entryX=0.5;entryY=0;entryDx=0;entryDy=0;rounded=1;" parent="1" source="5x1xcsumSCacz5PFYqU2-1" target="w_W01Yd-EX_Y7DasgpPd-4" edge="1">
                    <mxGeometry relative="1" as="geometry">
                        <mxPoint x="210" y="80" as="sourcePoint"/>
                    </mxGeometry>
                </mxCell>
                <mxCell id="w_W01Yd-EX_Y7DasgpPd-8" style="edgeStyle=orthogonalEdgeStyle;orthogonalLoop=1;jettySize=auto;html=1;exitX=0.5;exitY=1;exitDx=0;exitDy=0;entryX=0.5;entryY=0;entryDx=0;entryDy=0;rounded=1;" parent="1" source="5x1xcsumSCacz5PFYqU2-1" target="w_W01Yd-EX_Y7DasgpPd-5" edge="1">
                    <mxGeometry relative="1" as="geometry">
                        <mxPoint x="210" y="80" as="sourcePoint"/>
                    </mxGeometry>
                </mxCell>
                <mxCell id="w_W01Yd-EX_Y7DasgpPd-9" style="edgeStyle=orthogonalEdgeStyle;orthogonalLoop=1;jettySize=auto;html=1;exitX=0.5;exitY=1;exitDx=0;exitDy=0;entryX=0.5;entryY=0;entryDx=0;entryDy=0;rounded=1;" parent="1" source="5x1xcsumSCacz5PFYqU2-1" target="w_W01Yd-EX_Y7DasgpPd-6" edge="1">
                    <mxGeometry relative="1" as="geometry">
                        <mxPoint x="210" y="80" as="sourcePoint"/>
                    </mxGeometry>
                </mxCell>
                <mxCell id="5x1xcsumSCacz5PFYqU2-46" style="edgeStyle=orthogonalEdgeStyle;orthogonalLoop=1;jettySize=auto;html=1;exitX=0.5;exitY=1;exitDx=0;exitDy=0;entryX=0.5;entryY=0;entryDx=0;entryDy=0;curved=1;strokeColor=#70f38d;" parent="1" source="w_W01Yd-EX_Y7DasgpPd-4" target="5x1xcsumSCacz5PFYqU2-32" edge="1">
                    <mxGeometry relative="1" as="geometry"/>
                </mxCell>
                <mxCell id="w_W01Yd-EX_Y7DasgpPd-4" value="#&lt;span style=&quot;color: rgb(78, 201, 176); background-color: rgb(31, 31, 31); font-family: &amp;quot;Cascadia Code&amp;quot;, Consolas, &amp;quot;Courier New&amp;quot;, monospace; font-size: 1px;&quot;&gt;GrnButton&lt;/span&gt;" style="ellipse;whiteSpace=wrap;html=1;aspect=fixed;fillColor=#70f38d;strokeColor=none;fontSize=1;" parent="1" vertex="1">
                    <mxGeometry x="130" y="130" width="20" height="20" as="geometry"/>
                </mxCell>
                <mxCell id="5x1xcsumSCacz5PFYqU2-13" style="edgeStyle=orthogonalEdgeStyle;orthogonalLoop=1;jettySize=auto;html=1;exitX=0.5;exitY=1;exitDx=0;exitDy=0;entryX=0.5;entryY=0;entryDx=0;entryDy=0;curved=1;strokeColor=#ffc979;" parent="1" source="w_W01Yd-EX_Y7DasgpPd-5" target="5x1xcsumSCacz5PFYqU2-11" edge="1">
                    <mxGeometry relative="1" as="geometry"/>
                </mxCell>
                <mxCell id="5x1xcsumSCacz5PFYqU2-47" style="edgeStyle=orthogonalEdgeStyle;orthogonalLoop=1;jettySize=auto;html=1;exitX=0.5;exitY=1;exitDx=0;exitDy=0;entryX=0.5;entryY=0;entryDx=0;entryDy=0;curved=1;strokeColor=#ffc979;" parent="1" source="w_W01Yd-EX_Y7DasgpPd-5" target="5x1xcsumSCacz5PFYqU2-33" edge="1">
                    <mxGeometry relative="1" as="geometry"/>
                </mxCell>
                <mxCell id="5x1xcsumSCacz5PFYqU2-49" style="edgeStyle=orthogonalEdgeStyle;curved=1;rounded=1;orthogonalLoop=1;jettySize=auto;html=1;exitX=0.5;exitY=1;exitDx=0;exitDy=0;entryX=0.5;entryY=0;entryDx=0;entryDy=0;strokeColor=#ffc979;" parent="1" source="w_W01Yd-EX_Y7DasgpPd-5" target="5x1xcsumSCacz5PFYqU2-43" edge="1">
                    <mxGeometry relative="1" as="geometry"/>
                </mxCell>
                <mxCell id="w_W01Yd-EX_Y7DasgpPd-5" value="#&lt;span style=&quot;color: rgb(78, 201, 176); background-color: rgb(31, 31, 31); font-family: &amp;quot;Cascadia Code&amp;quot;, Consolas, &amp;quot;Courier New&amp;quot;, monospace; font-size: 1px;&quot;&gt;YelButton&lt;br style=&quot;font-size: 1px;&quot;&gt;&lt;/span&gt;" style="ellipse;whiteSpace=wrap;html=1;aspect=fixed;fillColor=#ffc979;strokeColor=none;fontSize=1;" parent="1" vertex="1">
                    <mxGeometry x="210" y="130" width="20" height="20" as="geometry"/>
                </mxCell>
                <mxCell id="5x1xcsumSCacz5PFYqU2-14" style="edgeStyle=orthogonalEdgeStyle;orthogonalLoop=1;jettySize=auto;html=1;exitX=0.5;exitY=1;exitDx=0;exitDy=0;entryX=0.5;entryY=0;entryDx=0;entryDy=0;curved=1;strokeColor=#ff7d7d;" parent="1" source="w_W01Yd-EX_Y7DasgpPd-6" target="5x1xcsumSCacz5PFYqU2-12" edge="1">
                    <mxGeometry relative="1" as="geometry"/>
                </mxCell>
                <mxCell id="5x1xcsumSCacz5PFYqU2-48" style="edgeStyle=orthogonalEdgeStyle;orthogonalLoop=1;jettySize=auto;html=1;exitX=0.5;exitY=1;exitDx=0;exitDy=0;entryX=0.5;entryY=0;entryDx=0;entryDy=0;curved=1;strokeColor=#ff7d7d;" parent="1" source="w_W01Yd-EX_Y7DasgpPd-6" target="5x1xcsumSCacz5PFYqU2-34" edge="1">
                    <mxGeometry relative="1" as="geometry"/>
                </mxCell>
                <mxCell id="5x1xcsumSCacz5PFYqU2-50" style="edgeStyle=orthogonalEdgeStyle;curved=1;rounded=1;orthogonalLoop=1;jettySize=auto;html=1;exitX=0.5;exitY=1;exitDx=0;exitDy=0;entryX=0.5;entryY=0;entryDx=0;entryDy=0;strokeColor=#ff7d7d;" parent="1" source="w_W01Yd-EX_Y7DasgpPd-6" target="5x1xcsumSCacz5PFYqU2-44" edge="1">
                    <mxGeometry relative="1" as="geometry"/>
                </mxCell>
                <mxCell id="w_W01Yd-EX_Y7DasgpPd-6" value="#&lt;span style=&quot;color: rgb(78, 201, 176); background-color: rgb(31, 31, 31); font-family: &amp;quot;Cascadia Code&amp;quot;, Consolas, &amp;quot;Courier New&amp;quot;, monospace; font-size: 1px;&quot;&gt;RedButton&lt;/span&gt;" style="ellipse;whiteSpace=wrap;html=1;aspect=fixed;fillColor=#ff7d7d;strokeColor=none;fontSize=1;" parent="1" vertex="1">
                    <mxGeometry x="290" y="130" width="20" height="20" as="geometry"/>
                </mxCell>
                <mxCell id="5x1xcsumSCacz5PFYqU2-5" style="edgeStyle=orthogonalEdgeStyle;rounded=1;orthogonalLoop=1;jettySize=auto;html=1;exitX=0.5;exitY=1;exitDx=0;exitDy=0;entryX=0;entryY=0.5;entryDx=0;entryDy=0;" parent="1" source="5x1xcsumSCacz5PFYqU2-1" target="5x1xcsumSCacz5PFYqU2-3" edge="1">
                    <mxGeometry relative="1" as="geometry"/>
                </mxCell>
                <mxCell id="5x1xcsumSCacz5PFYqU2-1" value="#&lt;span style=&quot;color: rgb(78, 201, 176); background-color: rgb(31, 31, 31); font-family: &amp;quot;Cascadia Code&amp;quot;, Consolas, &amp;quot;Courier New&amp;quot;, monospace; font-size: 14px;&quot;&gt;Button&lt;/span&gt;" style="rounded=1;whiteSpace=wrap;html=1;strokeColor=none;fillColor=#ffffff;fontColor=#242424;horizontal=1;fontSize=20;verticalAlign=middle;fontStyle=0" parent="1" vertex="1">
                    <mxGeometry x="240" y="40" width="120" height="40" as="geometry"/>
                </mxCell>
                <mxCell id="ddjmd_MwmNvslgD9BPvl-12" style="edgeStyle=orthogonalEdgeStyle;rounded=0;orthogonalLoop=1;jettySize=auto;html=1;exitX=0.5;exitY=1;exitDx=0;exitDy=0;entryX=0.5;entryY=0;entryDx=0;entryDy=0;curved=1;shadow=0;strokeColor=#d9d9d9;" parent="1" source="5x1xcsumSCacz5PFYqU2-3" target="ddjmd_MwmNvslgD9BPvl-13" edge="1">
                    <mxGeometry relative="1" as="geometry"/>
                </mxCell>
                <mxCell id="5x1xcsumSCacz5PFYqU2-3" value="#&lt;span style=&quot;color: rgb(78, 201, 176); background-color: rgb(31, 31, 31); font-family: &amp;quot;Cascadia Code&amp;quot;, Consolas, &amp;quot;Courier New&amp;quot;, monospace; font-size: 14px; font-weight: normal;&quot;&gt;TextButton&lt;/span&gt;" style="rounded=1;whiteSpace=wrap;html=1;strokeColor=none;fillColor=#ececec;fontColor=#242424;fontSize=23;fontStyle=1" parent="1" vertex="1">
                    <mxGeometry x="360" y="90" width="120" height="40" as="geometry"/>
                </mxCell>
                <mxCell id="5x1xcsumSCacz5PFYqU2-95" style="edgeStyle=orthogonalEdgeStyle;rounded=1;orthogonalLoop=1;jettySize=auto;html=1;exitX=0.5;exitY=1;exitDx=0;exitDy=0;entryX=0.5;entryY=0;entryDx=0;entryDy=0;startArrow=circlePlus;startFill=0;endArrow=circlePlus;endFill=0;" parent="1" source="5x1xcsumSCacz5PFYqU2-16" target="5x1xcsumSCacz5PFYqU2-15" edge="1">
                    <mxGeometry relative="1" as="geometry"/>
                </mxCell>
                <mxCell id="5x1xcsumSCacz5PFYqU2-51" value="" style="group" parent="1" vertex="1" connectable="0">
                    <mxGeometry x="730" y="110" width="220" height="240" as="geometry"/>
                </mxCell>
                <mxCell id="5x1xcsumSCacz5PFYqU2-52" value="" style="rounded=0;whiteSpace=wrap;html=1;fillColor=none;dashed=1;strokeColor=#A1A1A1;align=left;" parent="5x1xcsumSCacz5PFYqU2-51" vertex="1">
                    <mxGeometry y="29.268292682926827" width="220" height="210.73170731707316" as="geometry"/>
                </mxCell>
                <mxCell id="5x1xcsumSCacz5PFYqU2-53" value="Title bar" style="rounded=1;whiteSpace=wrap;html=1;strokeColor=none;fillColor=#D9D9D9;arcSize=11;fontColor=#242424;fontSize=21;verticalAlign=top;align=center;spacingLeft=0;spacingRight=52;" parent="5x1xcsumSCacz5PFYqU2-51" vertex="1">
                    <mxGeometry x="15.714285714285714" y="40.97560975609756" width="188.57142857142856" height="93.65853658536585" as="geometry"/>
                </mxCell>
                <mxCell id="5x1xcsumSCacz5PFYqU2-54" value="Dialog" style="rounded=1;whiteSpace=wrap;html=1;strokeColor=none;fillColor=#ffffff;arcSize=11;fontColor=#242424;fontSize=21;shadow=0;" parent="5x1xcsumSCacz5PFYqU2-51" vertex="1">
                    <mxGeometry x="15.714285714285714" y="87.80487804878048" width="188.57142857142856" height="140.48780487804876" as="geometry"/>
                </mxCell>
                <mxCell id="5x1xcsumSCacz5PFYqU2-55" value="#&lt;span style=&quot;color: rgb(78, 201, 176); background-color: rgb(31, 31, 31); font-family: &amp;quot;Cascadia Code&amp;quot;, Consolas, &amp;quot;Courier New&amp;quot;, monospace; font-size: 14px;&quot;&gt;BaseDialog&lt;/span&gt;" style="text;html=1;strokeColor=none;fillColor=none;align=center;verticalAlign=middle;whiteSpace=wrap;rounded=0;" parent="5x1xcsumSCacz5PFYqU2-51" vertex="1">
                    <mxGeometry x="31.428571428571427" width="157.14285714285714" height="35.12195121951219" as="geometry"/>
                </mxCell>
                <mxCell id="5x1xcsumSCacz5PFYqU2-56" value="" style="ellipse;whiteSpace=wrap;html=1;aspect=fixed;fillColor=#ffc979;strokeColor=none;" parent="5x1xcsumSCacz5PFYqU2-51" vertex="1">
                    <mxGeometry x="140" y="50" width="20" height="20" as="geometry"/>
                </mxCell>
                <mxCell id="5x1xcsumSCacz5PFYqU2-57" value="" style="ellipse;whiteSpace=wrap;html=1;aspect=fixed;fillColor=#ff7d7d;strokeColor=none;" parent="5x1xcsumSCacz5PFYqU2-51" vertex="1">
                    <mxGeometry x="168.57" y="50" width="20" height="20" as="geometry"/>
                </mxCell>
                <mxCell id="5x1xcsumSCacz5PFYqU2-65" value="" style="rounded=1;whiteSpace=wrap;html=1;strokeColor=none;fillColor=#70f38d;arcSize=50;" parent="5x1xcsumSCacz5PFYqU2-51" vertex="1">
                    <mxGeometry x="30" y="190" width="60" height="20" as="geometry"/>
                </mxCell>
                <mxCell id="5x1xcsumSCacz5PFYqU2-66" value="" style="rounded=1;whiteSpace=wrap;html=1;strokeColor=none;fillColor=#ff7d7d;arcSize=50;" parent="5x1xcsumSCacz5PFYqU2-51" vertex="1">
                    <mxGeometry x="130" y="190" width="60" height="20" as="geometry"/>
                </mxCell>
                <mxCell id="5x1xcsumSCacz5PFYqU2-58" style="edgeStyle=orthogonalEdgeStyle;curved=1;rounded=1;orthogonalLoop=1;jettySize=auto;html=1;exitX=1;exitY=0.5;exitDx=0;exitDy=0;entryX=0;entryY=0.5;entryDx=0;entryDy=0;" parent="1" source="5x1xcsumSCacz5PFYqU2-8" target="5x1xcsumSCacz5PFYqU2-52" edge="1">
                    <mxGeometry relative="1" as="geometry"/>
                </mxCell>
                <mxCell id="5x1xcsumSCacz5PFYqU2-69" style="edgeStyle=orthogonalEdgeStyle;rounded=1;orthogonalLoop=1;jettySize=auto;html=1;exitX=0.5;exitY=1;exitDx=0;exitDy=0;entryX=0.5;entryY=0;entryDx=0;entryDy=0;strokeColor=#70f38d;curved=1;" parent="1" source="5x1xcsumSCacz5PFYqU2-59" target="5x1xcsumSCacz5PFYqU2-65" edge="1">
                    <mxGeometry relative="1" as="geometry"/>
                </mxCell>
                <mxCell id="5x1xcsumSCacz5PFYqU2-59" value="" style="rounded=1;whiteSpace=wrap;html=1;strokeColor=none;fillColor=#70f38d;arcSize=50;" parent="1" vertex="1">
                    <mxGeometry x="440" y="170" width="60" height="20" as="geometry"/>
                </mxCell>
                <mxCell id="5x1xcsumSCacz5PFYqU2-67" style="edgeStyle=orthogonalEdgeStyle;rounded=1;orthogonalLoop=1;jettySize=auto;html=1;exitX=0.5;exitY=1;exitDx=0;exitDy=0;entryX=0.5;entryY=0;entryDx=0;entryDy=0;strokeColor=#ff7d7d;curved=1;" parent="1" source="5x1xcsumSCacz5PFYqU2-60" target="5x1xcsumSCacz5PFYqU2-66" edge="1">
                    <mxGeometry relative="1" as="geometry"/>
                </mxCell>
                <mxCell id="5x1xcsumSCacz5PFYqU2-60" value="" style="rounded=1;whiteSpace=wrap;html=1;strokeColor=none;fillColor=#ff7d7d;arcSize=50;" parent="1" vertex="1">
                    <mxGeometry x="500" y="140" width="60" height="20" as="geometry"/>
                </mxCell>
                <mxCell id="5x1xcsumSCacz5PFYqU2-72" value="" style="group" parent="1" vertex="1" connectable="0">
                    <mxGeometry x="940" y="550" width="220" height="240" as="geometry"/>
                </mxCell>
                <mxCell id="5x1xcsumSCacz5PFYqU2-73" value="" style="rounded=0;whiteSpace=wrap;html=1;fillColor=none;dashed=1;strokeColor=#A1A1A1;align=left;" parent="5x1xcsumSCacz5PFYqU2-72" vertex="1">
                    <mxGeometry y="29.268292682926827" width="220" height="210.73170731707316" as="geometry"/>
                </mxCell>
                <mxCell id="5x1xcsumSCacz5PFYqU2-74" value="New Group" style="rounded=1;whiteSpace=wrap;html=1;strokeColor=none;fillColor=#D9D9D9;arcSize=11;fontColor=#242424;fontSize=21;verticalAlign=top;align=center;spacingLeft=0;spacingRight=52;" parent="5x1xcsumSCacz5PFYqU2-72" vertex="1">
                    <mxGeometry x="15.714285714285714" y="40.97560975609756" width="188.57142857142856" height="93.65853658536585" as="geometry"/>
                </mxCell>
                <mxCell id="5x1xcsumSCacz5PFYqU2-75" value="Dialog" style="rounded=1;whiteSpace=wrap;html=1;strokeColor=none;fillColor=#ffffff;arcSize=11;fontColor=#242424;fontSize=21;shadow=0;" parent="5x1xcsumSCacz5PFYqU2-72" vertex="1">
                    <mxGeometry x="15.714285714285714" y="87.80487804878048" width="188.57142857142856" height="140.48780487804876" as="geometry"/>
                </mxCell>
                <mxCell id="5x1xcsumSCacz5PFYqU2-76" value="#&lt;span style=&quot;color: rgb(78, 201, 176); background-color: rgb(31, 31, 31); font-family: &amp;quot;Cascadia Code&amp;quot;, Consolas, &amp;quot;Courier New&amp;quot;, monospace; font-size: 14px;&quot;&gt;GroupDialog&lt;/span&gt;" style="text;html=1;strokeColor=none;fillColor=none;align=center;verticalAlign=middle;whiteSpace=wrap;rounded=0;" parent="5x1xcsumSCacz5PFYqU2-72" vertex="1">
                    <mxGeometry x="31.428571428571427" width="157.14285714285714" height="35.12195121951219" as="geometry"/>
                </mxCell>
                <mxCell id="5x1xcsumSCacz5PFYqU2-77" value="" style="ellipse;whiteSpace=wrap;html=1;aspect=fixed;fillColor=#ffc979;strokeColor=none;" parent="5x1xcsumSCacz5PFYqU2-72" vertex="1">
                    <mxGeometry x="140" y="50" width="20" height="20" as="geometry"/>
                </mxCell>
                <mxCell id="5x1xcsumSCacz5PFYqU2-78" value="" style="ellipse;whiteSpace=wrap;html=1;aspect=fixed;fillColor=#ff7d7d;strokeColor=none;" parent="5x1xcsumSCacz5PFYqU2-72" vertex="1">
                    <mxGeometry x="168.57" y="50" width="20" height="20" as="geometry"/>
                </mxCell>
                <mxCell id="5x1xcsumSCacz5PFYqU2-79" value="" style="rounded=1;whiteSpace=wrap;html=1;strokeColor=none;fillColor=#70f38d;arcSize=50;" parent="5x1xcsumSCacz5PFYqU2-72" vertex="1">
                    <mxGeometry x="30" y="190" width="60" height="20" as="geometry"/>
                </mxCell>
                <mxCell id="5x1xcsumSCacz5PFYqU2-80" value="" style="rounded=1;whiteSpace=wrap;html=1;strokeColor=none;fillColor=#ff7d7d;arcSize=50;" parent="5x1xcsumSCacz5PFYqU2-72" vertex="1">
                    <mxGeometry x="130" y="190" width="60" height="20" as="geometry"/>
                </mxCell>
                <mxCell id="5x1xcsumSCacz5PFYqU2-81" value="" style="group" parent="1" vertex="1" connectable="0">
                    <mxGeometry x="700" y="550" width="220" height="240" as="geometry"/>
                </mxCell>
                <mxCell id="5x1xcsumSCacz5PFYqU2-82" value="" style="rounded=0;whiteSpace=wrap;html=1;fillColor=none;dashed=1;strokeColor=#A1A1A1;align=left;" parent="5x1xcsumSCacz5PFYqU2-81" vertex="1">
                    <mxGeometry y="29.268292682926827" width="220" height="210.73170731707316" as="geometry"/>
                </mxCell>
                <mxCell id="5x1xcsumSCacz5PFYqU2-83" value="New Task" style="rounded=1;whiteSpace=wrap;html=1;strokeColor=none;fillColor=#D9D9D9;arcSize=11;fontColor=#242424;fontSize=21;verticalAlign=top;align=center;spacingLeft=0;spacingRight=52;" parent="5x1xcsumSCacz5PFYqU2-81" vertex="1">
                    <mxGeometry x="15.714285714285714" y="40.97560975609756" width="188.57142857142856" height="93.65853658536585" as="geometry"/>
                </mxCell>
                <mxCell id="5x1xcsumSCacz5PFYqU2-84" value="Dialog" style="rounded=1;whiteSpace=wrap;html=1;strokeColor=none;fillColor=#ffffff;arcSize=11;fontColor=#242424;fontSize=21;shadow=0;" parent="5x1xcsumSCacz5PFYqU2-81" vertex="1">
                    <mxGeometry x="15.714285714285714" y="87.80487804878048" width="188.57142857142856" height="140.48780487804876" as="geometry"/>
                </mxCell>
                <mxCell id="5x1xcsumSCacz5PFYqU2-85" value="#&lt;span style=&quot;color: rgb(78, 201, 176); background-color: rgb(31, 31, 31); font-family: &amp;quot;Cascadia Code&amp;quot;, Consolas, &amp;quot;Courier New&amp;quot;, monospace; font-size: 14px;&quot;&gt;TaskDialog&lt;/span&gt;" style="text;html=1;strokeColor=none;fillColor=none;align=center;verticalAlign=middle;whiteSpace=wrap;rounded=0;" parent="5x1xcsumSCacz5PFYqU2-81" vertex="1">
                    <mxGeometry x="31.428571428571427" width="157.14285714285714" height="35.12195121951219" as="geometry"/>
                </mxCell>
                <mxCell id="5x1xcsumSCacz5PFYqU2-86" value="" style="ellipse;whiteSpace=wrap;html=1;aspect=fixed;fillColor=#ffc979;strokeColor=none;" parent="5x1xcsumSCacz5PFYqU2-81" vertex="1">
                    <mxGeometry x="140" y="50" width="20" height="20" as="geometry"/>
                </mxCell>
                <mxCell id="5x1xcsumSCacz5PFYqU2-87" value="" style="ellipse;whiteSpace=wrap;html=1;aspect=fixed;fillColor=#ff7d7d;strokeColor=none;" parent="5x1xcsumSCacz5PFYqU2-81" vertex="1">
                    <mxGeometry x="168.57" y="50" width="20" height="20" as="geometry"/>
                </mxCell>
                <mxCell id="5x1xcsumSCacz5PFYqU2-88" value="" style="rounded=1;whiteSpace=wrap;html=1;strokeColor=none;fillColor=#70f38d;arcSize=50;" parent="5x1xcsumSCacz5PFYqU2-81" vertex="1">
                    <mxGeometry x="30" y="190" width="60" height="20" as="geometry"/>
                </mxCell>
                <mxCell id="5x1xcsumSCacz5PFYqU2-89" value="" style="rounded=1;whiteSpace=wrap;html=1;strokeColor=none;fillColor=#ff7d7d;arcSize=50;" parent="5x1xcsumSCacz5PFYqU2-81" vertex="1">
                    <mxGeometry x="130" y="190" width="60" height="20" as="geometry"/>
                </mxCell>
                <mxCell id="5x1xcsumSCacz5PFYqU2-90" style="edgeStyle=orthogonalEdgeStyle;rounded=1;orthogonalLoop=1;jettySize=auto;html=1;exitX=0.5;exitY=1;exitDx=0;exitDy=0;entryX=0.5;entryY=0;entryDx=0;entryDy=0;" parent="1" source="5x1xcsumSCacz5PFYqU2-52" target="5x1xcsumSCacz5PFYqU2-76" edge="1">
                    <mxGeometry relative="1" as="geometry"/>
                </mxCell>
                <mxCell id="5x1xcsumSCacz5PFYqU2-91" style="edgeStyle=orthogonalEdgeStyle;rounded=1;orthogonalLoop=1;jettySize=auto;html=1;exitX=0.5;exitY=1;exitDx=0;exitDy=0;entryX=0.5;entryY=0;entryDx=0;entryDy=0;" parent="1" source="5x1xcsumSCacz5PFYqU2-52" target="5x1xcsumSCacz5PFYqU2-85" edge="1">
                    <mxGeometry relative="1" as="geometry"/>
                </mxCell>
                <mxCell id="5x1xcsumSCacz5PFYqU2-92" style="edgeStyle=orthogonalEdgeStyle;rounded=1;orthogonalLoop=1;jettySize=auto;html=1;exitX=0.5;exitY=1;exitDx=0;exitDy=0;entryX=0.5;entryY=0;entryDx=0;entryDy=0;curved=1;" parent="1" source="5x1xcsumSCacz5PFYqU2-8" target="5x1xcsumSCacz5PFYqU2-16" edge="1">
                    <mxGeometry relative="1" as="geometry"/>
                </mxCell>
                <mxCell id="5x1xcsumSCacz5PFYqU2-93" style="edgeStyle=orthogonalEdgeStyle;rounded=1;orthogonalLoop=1;jettySize=auto;html=1;exitX=0.5;exitY=1;exitDx=0;exitDy=0;entryX=0;entryY=0.25;entryDx=0;entryDy=0;curved=1;" parent="1" source="5x1xcsumSCacz5PFYqU2-41" target="5x1xcsumSCacz5PFYqU2-16" edge="1">
                    <mxGeometry relative="1" as="geometry"/>
                </mxCell>
                <mxCell id="5x1xcsumSCacz5PFYqU2-94" style="edgeStyle=orthogonalEdgeStyle;rounded=1;orthogonalLoop=1;jettySize=auto;html=1;exitX=0.5;exitY=1;exitDx=0;exitDy=0;entryX=0;entryY=0.5;entryDx=0;entryDy=0;curved=1;" parent="1" source="5x1xcsumSCacz5PFYqU2-26" target="5x1xcsumSCacz5PFYqU2-16" edge="1">
                    <mxGeometry relative="1" as="geometry"/>
                </mxCell>
                <mxCell id="5x1xcsumSCacz5PFYqU2-96" style="edgeStyle=orthogonalEdgeStyle;rounded=1;orthogonalLoop=1;jettySize=auto;html=1;exitX=0.5;exitY=1;exitDx=0;exitDy=0;entryX=0.5;entryY=0;entryDx=0;entryDy=0;curved=1;" parent="1" source="5x1xcsumSCacz5PFYqU2-6" target="w_W01Yd-EX_Y7DasgpPd-2" edge="1">
                    <mxGeometry relative="1" as="geometry"/>
                </mxCell>
                <mxCell id="ddjmd_MwmNvslgD9BPvl-2" value="custom_button.py" style="text;html=1;strokeColor=none;fillColor=none;align=left;verticalAlign=middle;whiteSpace=wrap;rounded=0;fontSize=17;spacingLeft=10;" parent="1" vertex="1">
                    <mxGeometry x="109.9985714285715" y="-5.119999999999997" width="157.14285714285714" height="35.12195121951219" as="geometry"/>
                </mxCell>
                <mxCell id="ddjmd_MwmNvslgD9BPvl-4" value="list nodes" style="text;html=1;strokeColor=none;fillColor=none;align=left;verticalAlign=middle;whiteSpace=wrap;rounded=0;fontSize=17;spacingLeft=10;" parent="1" vertex="1">
                    <mxGeometry x="-170.0014285714285" y="184.88" width="157.14285714285714" height="35.12195121951219" as="geometry"/>
                </mxCell>
                <mxCell id="ddjmd_MwmNvslgD9BPvl-7" style="edgeStyle=orthogonalEdgeStyle;rounded=0;orthogonalLoop=1;jettySize=auto;html=1;exitX=0.5;exitY=1;exitDx=0;exitDy=0;entryX=0;entryY=0.5;entryDx=0;entryDy=0;curved=1;strokeColor=#ff7d7d;" parent="1" source="w_W01Yd-EX_Y7DasgpPd-6" target="5x1xcsumSCacz5PFYqU2-60" edge="1">
                    <mxGeometry relative="1" as="geometry"/>
                </mxCell>
                <mxCell id="ddjmd_MwmNvslgD9BPvl-8" style="edgeStyle=orthogonalEdgeStyle;rounded=0;orthogonalLoop=1;jettySize=auto;html=1;exitX=0.5;exitY=1;exitDx=0;exitDy=0;entryX=0;entryY=0.5;entryDx=0;entryDy=0;curved=1;strokeColor=#70f38d;" parent="1" source="w_W01Yd-EX_Y7DasgpPd-4" target="5x1xcsumSCacz5PFYqU2-59" edge="1">
                    <mxGeometry relative="1" as="geometry"/>
                </mxCell>
                <mxCell id="ddjmd_MwmNvslgD9BPvl-14" value="" style="group" parent="1" vertex="1" connectable="0">
                    <mxGeometry x="-120" y="-80" width="160" height="40" as="geometry"/>
                </mxCell>
                <mxCell id="ddjmd_MwmNvslgD9BPvl-15" value="" style="rounded=0;whiteSpace=wrap;html=1;" parent="ddjmd_MwmNvslgD9BPvl-14" vertex="1">
                    <mxGeometry width="40" height="40" as="geometry"/>
                </mxCell>
                <mxCell id="ddjmd_MwmNvslgD9BPvl-16" value="" style="shape=stencil(lVdJcttADHwNryjMPjg7zj9cZTliRZFcsrL9PmBYQ3Mgsp3cuHRjsAMzhIe349PrYfD8drtevh5+js+34xA+Dd6P5+PhOt70aQiPQ3h4uVwPX66X7+fn+f31aUJOT98uPyYJv2aeo5Inkuff84ecyce/Xz7P+NN4XuH1L3f4wpTKPt45itITMpUECImmfytCVREZEIRC6gl6Au8TfKDc2yzqBWCzr8S9DZIou31C8BRcTyjNb9uETMnbEwR4KToKbG2IiFDIGS+FpuQmIUXi0AfOE4MTsqPa25AqFXBCFpI+DjG2yGwSipDvbdDIIKOrUI4dwfnmt02CVBs4piAQn6rBuwDxVQyekT5qsdWHPcQni3dIf7Hlz61c9/ASDL5WUJu82LdEgAJykB5QDL5ghWqvkG8e28NnZ/AJZJDig5VfQLtTPFv5FcmvlMXKBw5VfGSrPygZxbtq/YMTlE3FUEX+rNZe17rxLr6PL5PggvTR4BPGR1uQqPEqvlg84/x0bPG4gKM3eIcLOFt9AsoHafX3jkejbKqvPt9cS5B/xmcsv9p8Ziz/Lv9RR58als1/iFfzTH5GuN9UbWj9AUEzCA0l1xJymWK55eD22NO5a1YuzWmgUkrt9zKJAwkgxNp62jLrEwXQtaJvU27ZJgJVYLTuK9KrNBUSiENwNk9Xo2F76Spt21gd4RDBW79KbM1pezgVkl6nWkkQQZ3SW607FNpwnBa7iZzA8o9WI420A4Fjm3u5tgG9g/di8RnKN/orHrV3ttMjl9Y/9vBs8WixZruTKt4Dfy7NdnW7QeNY/VMsPkF/mmkz3Z6gP8udPqg9ss2HnNqX7YSzC/KH+HSvD7rN/edt8WO8PrxfTV/G02m+2a7/26usfpqvweHxDw==);lineShape=1;shadow=0;dashed=0;fontFamily=Helvetica;fontSize=12;fontColor=default;align=center;strokeColor=default;strokeWidth=2;fillColor=#2D9C5E;gradientColor=#DEDEDE;html=1;sketch=0;" parent="ddjmd_MwmNvslgD9BPvl-14" vertex="1">
                    <mxGeometry x="15" y="15" width="10" height="10" as="geometry"/>
                </mxCell>
                <mxCell id="ddjmd_MwmNvslgD9BPvl-17" value="custom_button.py&lt;br&gt;" style="rounded=0;whiteSpace=wrap;html=1;" parent="ddjmd_MwmNvslgD9BPvl-14" vertex="1">
                    <mxGeometry x="40" width="120" height="40" as="geometry"/>
                </mxCell>
                <mxCell id="ddjmd_MwmNvslgD9BPvl-18" value="" style="group" parent="1" vertex="1" connectable="0">
                    <mxGeometry x="-120" y="-30" width="160" height="40" as="geometry"/>
                </mxCell>
                <mxCell id="ddjmd_MwmNvslgD9BPvl-19" value="" style="rounded=0;whiteSpace=wrap;html=1;" parent="ddjmd_MwmNvslgD9BPvl-18" vertex="1">
                    <mxGeometry width="40" height="40" as="geometry"/>
                </mxCell>
                <mxCell id="ddjmd_MwmNvslgD9BPvl-20" value="" style="shape=stencil(lVdJcttADHwNryjMPjg7zj9cZTliRZFcsrL9PmBYQ3Mgsp3cuHRjsAMzhIe349PrYfD8drtevh5+js+34xA+Dd6P5+PhOt70aQiPQ3h4uVwPX66X7+fn+f31aUJOT98uPyYJv2aeo5Inkuff84ecyce/Xz7P+NN4XuH1L3f4wpTKPt45itITMpUECImmfytCVREZEIRC6gl6Au8TfKDc2yzqBWCzr8S9DZIou31C8BRcTyjNb9uETMnbEwR4KToKbG2IiFDIGS+FpuQmIUXi0AfOE4MTsqPa25AqFXBCFpI+DjG2yGwSipDvbdDIIKOrUI4dwfnmt02CVBs4piAQn6rBuwDxVQyekT5qsdWHPcQni3dIf7Hlz61c9/ASDL5WUJu82LdEgAJykB5QDL5ghWqvkG8e28NnZ/AJZJDig5VfQLtTPFv5FcmvlMXKBw5VfGSrPygZxbtq/YMTlE3FUEX+rNZe17rxLr6PL5PggvTR4BPGR1uQqPEqvlg84/x0bPG4gKM3eIcLOFt9AsoHafX3jkejbKqvPt9cS5B/xmcsv9p8Ziz/Lv9RR58als1/iFfzTH5GuN9UbWj9AUEzCA0l1xJymWK55eD22NO5a1YuzWmgUkrt9zKJAwkgxNp62jLrEwXQtaJvU27ZJgJVYLTuK9KrNBUSiENwNk9Xo2F76Spt21gd4RDBW79KbM1pezgVkl6nWkkQQZ3SW607FNpwnBa7iZzA8o9WI420A4Fjm3u5tgG9g/di8RnKN/orHrV3ttMjl9Y/9vBs8WixZruTKt4Dfy7NdnW7QeNY/VMsPkF/mmkz3Z6gP8udPqg9ss2HnNqX7YSzC/KH+HSvD7rN/edt8WO8PrxfTV/G02m+2a7/26usfpqvweHxDw==);lineShape=1;shadow=0;dashed=0;fontFamily=Helvetica;fontSize=12;fontColor=default;align=left;strokeColor=default;strokeWidth=2;fillColor=#EDEDED;gradientColor=#DEDEDE;html=1;sketch=0;" parent="ddjmd_MwmNvslgD9BPvl-18" vertex="1">
                    <mxGeometry x="15" y="15" width="10" height="10" as="geometry"/>
                </mxCell>
                <mxCell id="ddjmd_MwmNvslgD9BPvl-21" value="base_window.py" style="rounded=0;whiteSpace=wrap;html=1;" parent="ddjmd_MwmNvslgD9BPvl-18" vertex="1">
                    <mxGeometry x="40" width="120" height="40" as="geometry"/>
                </mxCell>
                <mxCell id="ddjmd_MwmNvslgD9BPvl-22" value="" style="group" parent="1" vertex="1" connectable="0">
                    <mxGeometry x="-120" y="20" width="160" height="40" as="geometry"/>
                </mxCell>
                <mxCell id="ddjmd_MwmNvslgD9BPvl-23" value="" style="rounded=0;whiteSpace=wrap;html=1;" parent="ddjmd_MwmNvslgD9BPvl-22" vertex="1">
                    <mxGeometry width="40" height="40" as="geometry"/>
                </mxCell>
                <mxCell id="ddjmd_MwmNvslgD9BPvl-24" value="" style="shape=stencil(lVdJcttADHwNryjMPjg7zj9cZTliRZFcsrL9PmBYQ3Mgsp3cuHRjsAMzhIe349PrYfD8drtevh5+js+34xA+Dd6P5+PhOt70aQiPQ3h4uVwPX66X7+fn+f31aUJOT98uPyYJv2aeo5Inkuff84ecyce/Xz7P+NN4XuH1L3f4wpTKPt45itITMpUECImmfytCVREZEIRC6gl6Au8TfKDc2yzqBWCzr8S9DZIou31C8BRcTyjNb9uETMnbEwR4KToKbG2IiFDIGS+FpuQmIUXi0AfOE4MTsqPa25AqFXBCFpI+DjG2yGwSipDvbdDIIKOrUI4dwfnmt02CVBs4piAQn6rBuwDxVQyekT5qsdWHPcQni3dIf7Hlz61c9/ASDL5WUJu82LdEgAJykB5QDL5ghWqvkG8e28NnZ/AJZJDig5VfQLtTPFv5FcmvlMXKBw5VfGSrPygZxbtq/YMTlE3FUEX+rNZe17rxLr6PL5PggvTR4BPGR1uQqPEqvlg84/x0bPG4gKM3eIcLOFt9AsoHafX3jkejbKqvPt9cS5B/xmcsv9p8Ziz/Lv9RR58als1/iFfzTH5GuN9UbWj9AUEzCA0l1xJymWK55eD22NO5a1YuzWmgUkrt9zKJAwkgxNp62jLrEwXQtaJvU27ZJgJVYLTuK9KrNBUSiENwNk9Xo2F76Spt21gd4RDBW79KbM1pezgVkl6nWkkQQZ3SW607FNpwnBa7iZzA8o9WI420A4Fjm3u5tgG9g/di8RnKN/orHrV3ttMjl9Y/9vBs8WixZruTKt4Dfy7NdnW7QeNY/VMsPkF/mmkz3Z6gP8udPqg9ss2HnNqX7YSzC/KH+HSvD7rN/edt8WO8PrxfTV/G02m+2a7/26usfpqvweHxDw==);lineShape=1;shadow=0;dashed=0;fontFamily=Helvetica;fontSize=12;fontColor=default;align=left;strokeColor=default;strokeWidth=2;fillColor=#EDEDED;gradientColor=#DEDEDE;html=1;sketch=0;" parent="ddjmd_MwmNvslgD9BPvl-22" vertex="1">
                    <mxGeometry x="15" y="15" width="10" height="10" as="geometry"/>
                </mxCell>
                <mxCell id="ddjmd_MwmNvslgD9BPvl-25" value="dialog.py" style="rounded=0;whiteSpace=wrap;html=1;" parent="ddjmd_MwmNvslgD9BPvl-22" vertex="1">
                    <mxGeometry x="40" width="120" height="40" as="geometry"/>
                </mxCell>
                <mxCell id="ddjmd_MwmNvslgD9BPvl-27" value="dialog.py" style="text;html=1;strokeColor=none;fillColor=none;align=left;verticalAlign=middle;whiteSpace=wrap;rounded=0;fontSize=17;spacingLeft=10;" parent="1" vertex="1">
                    <mxGeometry x="689.9985714285715" y="77.32" width="157.14285714285714" height="35.12195121951219" as="geometry"/>
                </mxCell>
                <mxCell id="ddjmd_MwmNvslgD9BPvl-29" value="base_window.py" style="text;html=1;strokeColor=none;fillColor=none;align=left;verticalAlign=middle;whiteSpace=wrap;rounded=0;fontSize=17;spacingLeft=10;" parent="1" vertex="1">
                    <mxGeometry x="409.9985714285715" y="224.88" width="157.14285714285714" height="35.12195121951219" as="geometry"/>
                </mxCell>
                <mxCell id="ddjmd_MwmNvslgD9BPvl-36" value="Title bar" style="rounded=1;whiteSpace=wrap;html=1;strokeColor=none;fillColor=#D9D9D9;arcSize=8;fontColor=#242424;fontSize=21;verticalAlign=top;align=center;spacingLeft=0;spacingRight=52;" parent="1" vertex="1">
                    <mxGeometry x="960" y="-278.53" width="200" height="179.02" as="geometry"/>
                </mxCell>
                <mxCell id="ddjmd_MwmNvslgD9BPvl-37" value="Window" style="rounded=1;whiteSpace=wrap;html=1;strokeColor=none;fillColor=#ffffff;arcSize=11;fontColor=#242424;fontSize=21;shadow=0;" parent="1" vertex="1">
                    <mxGeometry x="720" y="-240" width="200" height="140.49" as="geometry"/>
                </mxCell>
                <mxCell id="ddjmd_MwmNvslgD9BPvl-39" value="" style="ellipse;whiteSpace=wrap;html=1;aspect=fixed;fillColor=#ffc979;strokeColor=none;" parent="1" vertex="1">
                    <mxGeometry x="1100" y="-269.51" width="20" height="20" as="geometry"/>
                </mxCell>
                <mxCell id="ddjmd_MwmNvslgD9BPvl-40" value="" style="ellipse;whiteSpace=wrap;html=1;aspect=fixed;fillColor=#ff7d7d;strokeColor=none;" parent="1" vertex="1">
                    <mxGeometry x="1128.5700000000002" y="-269.51" width="20" height="20" as="geometry"/>
                </mxCell>
                <mxCell id="ddjmd_MwmNvslgD9BPvl-31" style="edgeStyle=orthogonalEdgeStyle;rounded=0;orthogonalLoop=1;jettySize=auto;html=1;exitX=1;exitY=0.25;exitDx=0;exitDy=0;curved=1;entryX=0;entryY=0.5;entryDx=0;entryDy=0;" parent="1" source="5x1xcsumSCacz5PFYqU2-7" target="ddjmd_MwmNvslgD9BPvl-41" edge="1">
                    <mxGeometry relative="1" as="geometry">
                        <mxPoint x="640" y="-200" as="targetPoint"/>
                    </mxGeometry>
                </mxCell>
                <mxCell id="ddjmd_MwmNvslgD9BPvl-44" style="edgeStyle=orthogonalEdgeStyle;rounded=1;orthogonalLoop=1;jettySize=auto;html=1;exitX=0.5;exitY=1;exitDx=0;exitDy=0;entryX=0.5;entryY=0;entryDx=0;entryDy=0;" parent="1" source="ddjmd_MwmNvslgD9BPvl-42" target="ddjmd_MwmNvslgD9BPvl-37" edge="1">
                    <mxGeometry relative="1" as="geometry"/>
                </mxCell>
                <mxCell id="ddjmd_MwmNvslgD9BPvl-42" value="#&lt;span style=&quot;color: rgb(78, 201, 176); background-color: rgb(31, 31, 31); font-family: &amp;quot;Cascadia Code&amp;quot;, Consolas, &amp;quot;Courier New&amp;quot;, monospace; font-size: 14px;&quot;&gt;MainLayer&lt;/span&gt;" style="rounded=0;whiteSpace=wrap;html=1;" parent="1" vertex="1">
                    <mxGeometry x="740" y="-360" width="160" height="40" as="geometry"/>
                </mxCell>
                <mxCell id="ddjmd_MwmNvslgD9BPvl-46" style="edgeStyle=orthogonalEdgeStyle;rounded=1;orthogonalLoop=1;jettySize=auto;html=1;exitX=0.5;exitY=1;exitDx=0;exitDy=0;entryX=0.5;entryY=0;entryDx=0;entryDy=0;" parent="1" source="ddjmd_MwmNvslgD9BPvl-45" target="ddjmd_MwmNvslgD9BPvl-36" edge="1">
                    <mxGeometry relative="1" as="geometry"/>
                </mxCell>
                <mxCell id="ddjmd_MwmNvslgD9BPvl-45" value="#&lt;span style=&quot;color: rgb(78, 201, 176); background-color: rgb(31, 31, 31); font-family: &amp;quot;Cascadia Code&amp;quot;, Consolas, &amp;quot;Courier New&amp;quot;, monospace; font-size: 14px;&quot;&gt;BaseWindow&lt;/span&gt;" style="rounded=0;whiteSpace=wrap;html=1;" parent="1" vertex="1">
                    <mxGeometry x="979.9999999999999" y="-360" width="160" height="40" as="geometry"/>
                </mxCell>
                <mxCell id="9Ulbc4L_B8sN4Hk_lOOH-1" value="" style="shape=image;verticalLabelPosition=bottom;labelBackgroundColor=default;verticalAlign=top;aspect=fixed;imageAspect=0;image=https://cdn.discordapp.com/attachments/1102741721378476032/1105724057585983508/margins.jpg;" parent="1" vertex="1">
                    <mxGeometry x="-610" y="1070" width="439" height="520" as="geometry"/>
                </mxCell>
                <mxCell id="9Ulbc4L_B8sN4Hk_lOOH-3" value="" style="shape=image;verticalLabelPosition=bottom;labelBackgroundColor=default;verticalAlign=top;aspect=fixed;imageAspect=0;image=https://cdn.discordapp.com/attachments/1102741721378476032/1105724273160638464/standard.jpg;" parent="1" vertex="1">
                    <mxGeometry x="-171" y="1070" width="338" height="520" as="geometry"/>
                </mxCell>
                <mxCell id="eFXEFctav6S6axiUQpOT-6" value="" style="group" parent="1" vertex="1" connectable="0">
                    <mxGeometry x="-120" y="70" width="160" height="40" as="geometry"/>
                </mxCell>
                <mxCell id="eFXEFctav6S6axiUQpOT-7" value="" style="rounded=0;whiteSpace=wrap;html=1;" parent="eFXEFctav6S6axiUQpOT-6" vertex="1">
                    <mxGeometry width="40" height="40" as="geometry"/>
                </mxCell>
                <mxCell id="eFXEFctav6S6axiUQpOT-8" value="" style="html=1;shadow=0;dashed=0;shape=mxgraph.bootstrap.checkbox2;labelPosition=right;verticalLabelPosition=middle;align=left;verticalAlign=middle;gradientColor=#DEDEDE;fillColor=#EDEDED;checked=0;spacing=5;checkedFill=#0085FC;checkedStroke=#ffffff;sketch=0;fontFamily=Helvetica;fontSize=12;fontColor=default;strokeColor=default;strokeWidth=2;" parent="eFXEFctav6S6axiUQpOT-6" vertex="1">
                    <mxGeometry x="15" y="15" width="10" height="10" as="geometry"/>
                </mxCell>
                <mxCell id="eFXEFctav6S6axiUQpOT-9" value="main_window.py" style="rounded=0;whiteSpace=wrap;html=1;" parent="eFXEFctav6S6axiUQpOT-6" vertex="1">
                    <mxGeometry x="40" width="120" height="40" as="geometry"/>
                </mxCell>
                <mxCell id="eFXEFctav6S6axiUQpOT-10" value="" style="group" parent="1" vertex="1" connectable="0">
                    <mxGeometry x="-120" y="-150" width="160" height="40" as="geometry"/>
                </mxCell>
                <mxCell id="eFXEFctav6S6axiUQpOT-11" value="" style="rounded=0;whiteSpace=wrap;html=1;" parent="eFXEFctav6S6axiUQpOT-10" vertex="1">
                    <mxGeometry width="40" height="40" as="geometry"/>
                </mxCell>
                <mxCell id="eFXEFctav6S6axiUQpOT-12" value="" style="html=1;shadow=0;dashed=0;shape=mxgraph.bootstrap.checkbox2;labelPosition=right;verticalLabelPosition=middle;align=left;verticalAlign=middle;gradientColor=#DEDEDE;fillColor=#EDEDED;checked=0;spacing=5;checkedFill=#0085FC;checkedStroke=#ffffff;sketch=0;fontFamily=Helvetica;fontSize=12;fontColor=default;strokeColor=default;strokeWidth=2;" parent="eFXEFctav6S6axiUQpOT-10" vertex="1">
                    <mxGeometry x="15" y="15" width="10" height="10" as="geometry"/>
                </mxCell>
                <mxCell id="eFXEFctav6S6axiUQpOT-13" value="" style="rounded=0;whiteSpace=wrap;html=1;" parent="eFXEFctav6S6axiUQpOT-10" vertex="1">
                    <mxGeometry x="40" width="120" height="40" as="geometry"/>
                </mxCell>
                <mxCell id="Xf4r0fkodoY7gUFnSLLh-1" value="" style="group" parent="1" vertex="1" connectable="0">
                    <mxGeometry x="1180" y="550" width="220" height="240" as="geometry"/>
                </mxCell>
                <mxCell id="Xf4r0fkodoY7gUFnSLLh-2" value="" style="rounded=0;whiteSpace=wrap;html=1;fillColor=none;dashed=1;strokeColor=#A1A1A1;align=left;" parent="Xf4r0fkodoY7gUFnSLLh-1" vertex="1">
                    <mxGeometry y="29.268292682926827" width="220" height="210.73170731707316" as="geometry"/>
                </mxCell>
                <mxCell id="Xf4r0fkodoY7gUFnSLLh-3" value="Confirmation" style="rounded=1;whiteSpace=wrap;html=1;strokeColor=none;fillColor=#D9D9D9;arcSize=11;fontColor=#242424;fontSize=21;verticalAlign=top;align=center;spacingLeft=0;spacingRight=52;" parent="Xf4r0fkodoY7gUFnSLLh-1" vertex="1">
                    <mxGeometry x="15.714285714285714" y="40.97560975609756" width="188.57142857142856" height="93.65853658536585" as="geometry"/>
                </mxCell>
                <mxCell id="Xf4r0fkodoY7gUFnSLLh-4" value="Dialog" style="rounded=1;whiteSpace=wrap;html=1;strokeColor=none;fillColor=#ffffff;arcSize=11;fontColor=#242424;fontSize=21;shadow=0;" parent="Xf4r0fkodoY7gUFnSLLh-1" vertex="1">
                    <mxGeometry x="15.714285714285714" y="87.80487804878048" width="188.57142857142856" height="140.48780487804876" as="geometry"/>
                </mxCell>
                <mxCell id="Xf4r0fkodoY7gUFnSLLh-5" value="&lt;p&gt;#&lt;span style=&quot;color: rgb(78, 201, 176); background-color: rgb(31, 31, 31); font-family: &amp;quot;Cascadia Code&amp;quot;, Consolas, &amp;quot;Courier New&amp;quot;, monospace; font-size: 14px;&quot;&gt;ConfirmationDialog&lt;/span&gt;&lt;/p&gt;" style="text;html=1;strokeColor=none;fillColor=none;align=center;verticalAlign=middle;whiteSpace=wrap;rounded=0;" parent="Xf4r0fkodoY7gUFnSLLh-1" vertex="1">
                    <mxGeometry x="31.428571428571427" width="157.14285714285714" height="35.12195121951219" as="geometry"/>
                </mxCell>
                <mxCell id="Xf4r0fkodoY7gUFnSLLh-6" value="" style="ellipse;whiteSpace=wrap;html=1;aspect=fixed;fillColor=#ffc979;strokeColor=none;" parent="Xf4r0fkodoY7gUFnSLLh-1" vertex="1">
                    <mxGeometry x="140" y="50" width="20" height="20" as="geometry"/>
                </mxCell>
                <mxCell id="Xf4r0fkodoY7gUFnSLLh-7" value="" style="ellipse;whiteSpace=wrap;html=1;aspect=fixed;fillColor=#ff7d7d;strokeColor=none;" parent="Xf4r0fkodoY7gUFnSLLh-1" vertex="1">
                    <mxGeometry x="168.57" y="50" width="20" height="20" as="geometry"/>
                </mxCell>
                <mxCell id="Xf4r0fkodoY7gUFnSLLh-8" value="" style="rounded=1;whiteSpace=wrap;html=1;strokeColor=none;fillColor=#70f38d;arcSize=50;" parent="Xf4r0fkodoY7gUFnSLLh-1" vertex="1">
                    <mxGeometry x="30" y="190" width="60" height="20" as="geometry"/>
                </mxCell>
                <mxCell id="Xf4r0fkodoY7gUFnSLLh-9" value="" style="rounded=1;whiteSpace=wrap;html=1;strokeColor=none;fillColor=#ff7d7d;arcSize=50;" parent="Xf4r0fkodoY7gUFnSLLh-1" vertex="1">
                    <mxGeometry x="130" y="190" width="60" height="20" as="geometry"/>
                </mxCell>
                <mxCell id="IDkW2gFBkNv64MkWnBdn-1" value="" style="shape=stencil(lVdJcttADHwNryjMPjg7zj9cZTliRZFcsrL9PmBYQ3Mgsp3cuHRjsAMzhIe349PrYfD8drtevh5+js+34xA+Dd6P5+PhOt70aQiPQ3h4uVwPX66X7+fn+f31aUJOT98uPyYJv2aeo5Inkuff84ecyce/Xz7P+NN4XuH1L3f4wpTKPt45itITMpUECImmfytCVREZEIRC6gl6Au8TfKDc2yzqBWCzr8S9DZIou31C8BRcTyjNb9uETMnbEwR4KToKbG2IiFDIGS+FpuQmIUXi0AfOE4MTsqPa25AqFXBCFpI+DjG2yGwSipDvbdDIIKOrUI4dwfnmt02CVBs4piAQn6rBuwDxVQyekT5qsdWHPcQni3dIf7Hlz61c9/ASDL5WUJu82LdEgAJykB5QDL5ghWqvkG8e28NnZ/AJZJDig5VfQLtTPFv5FcmvlMXKBw5VfGSrPygZxbtq/YMTlE3FUEX+rNZe17rxLr6PL5PggvTR4BPGR1uQqPEqvlg84/x0bPG4gKM3eIcLOFt9AsoHafX3jkejbKqvPt9cS5B/xmcsv9p8Ziz/Lv9RR58als1/iFfzTH5GuN9UbWj9AUEzCA0l1xJymWK55eD22NO5a1YuzWmgUkrt9zKJAwkgxNp62jLrEwXQtaJvU27ZJgJVYLTuK9KrNBUSiENwNk9Xo2F76Spt21gd4RDBW79KbM1pezgVkl6nWkkQQZ3SW607FNpwnBa7iZzA8o9WI420A4Fjm3u5tgG9g/di8RnKN/orHrV3ttMjl9Y/9vBs8WixZruTKt4Dfy7NdnW7QeNY/VMsPkF/mmkz3Z6gP8udPqg9ss2HnNqX7YSzC/KH+HSvD7rN/edt8WO8PrxfTV/G02m+2a7/26usfpqvweHxDw==);lineShape=1;strokeColor=default;" parent="1" vertex="1">
                    <mxGeometry x="-150" y="-135" width="10" height="10" as="geometry"/>
                </mxCell>
                <mxCell id="4" value="" style="group" parent="1" vertex="1" connectable="0">
                    <mxGeometry x="329.99857142857144" y="584.88" width="320.00142857142856" height="433.67999999999995" as="geometry"/>
                </mxCell>
                <mxCell id="2" value="" style="rounded=0;whiteSpace=wrap;html=1;fillColor=none;dashed=1;" parent="4" vertex="1">
                    <mxGeometry x="0.0014285714285620088" y="35.120000000000005" width="320" height="390" as="geometry"/>
                </mxCell>
                <mxCell id="5x1xcsumSCacz5PFYqU2-16" value="" style="shape=image;verticalLabelPosition=bottom;labelBackgroundColor=default;verticalAlign=top;aspect=fixed;imageAspect=0;image=https://cdn.discordapp.com/attachments/1104825374573088868/1104937368907153468/Frame_80.png;fillColor=#ffc979;shadow=0;clipPath=inset(49.67% 13.67% 14% 58%);" parent="4" vertex="1">
                    <mxGeometry x="3.171428571428578" y="35.120000000000005" width="310.8" height="398.56" as="geometry"/>
                </mxCell>
                <mxCell id="3" value="#&lt;span style=&quot;color: rgb(78, 201, 176); background-color: rgb(31, 31, 31); font-family: &amp;quot;Cascadia Code&amp;quot;, Consolas, &amp;quot;Courier New&amp;quot;, monospace; font-size: 14px;&quot;&gt;MainWindow&lt;/span&gt;" style="text;html=1;strokeColor=none;fillColor=none;align=center;verticalAlign=middle;whiteSpace=wrap;rounded=0;" parent="4" vertex="1">
                    <mxGeometry width="157.14285714285714" height="35.12195121951219" as="geometry"/>
                </mxCell>
                <mxCell id="5" style="edgeStyle=orthogonalEdgeStyle;html=1;exitX=0.5;exitY=1;exitDx=0;exitDy=0;entryX=0.5;entryY=0;entryDx=0;entryDy=0;" edge="1" parent="1" source="5x1xcsumSCacz5PFYqU2-52" target="Xf4r0fkodoY7gUFnSLLh-5">
                    <mxGeometry relative="1" as="geometry"/>
                </mxCell>
            </root>
        </mxGraphModel>
    </diagram>
</mxfile>